PathFileType  4	(X/Y/Z) C:\Users\antoi\Documents\MyRepositories\mobilecap\ResultsAnalysis
DataRate	CameraRate	NumFrames	NumMarkers	Units	OrigDataRate	OrigDataStartFrame	OrigNumFrames
100.0	100.0	5	51	mm	100.0	97	154
Frame#	Time	r_knee			r_shank_antsup			r_ankle			r_calc			r_5meta			r_toe			L_knee			L_shank_antsup			L_ankle			L_calc			L_5meta			L_toe			r_sh2			r_sh3			r_sh4			L_sh2			L_sh3			r_thigh1			r_thigh2			r_thigh3			r_thigh4			r_thigh5			L_thigh1			L_thigh2			L_thigh3			L_thigh4			r.ASIS			r.PSIS			L.ASIS			L.PSIS			C7			R_Shoulder			L_Shoulder			R_Sternum			L_Sternum			R_humerus			R_elbow_med			R_elbow_lat			R_forearm			R_wrist_radius			R_wrist_ulna			L_humerus			L_elbow_med			L_elbow_lat			L_forearm			L_wrist_radius			L_wrist_ulna			R_HJC			L_HJC			R_HJC_reg			L_HJC_reg			
		X1	Y1	Z1	X2	Y2	Z2	X3	Y3	Z3	X4	Y4	Z4	X5	Y5	Z5	X6	Y6	Z6	X7	Y7	Z7	X8	Y8	Z8	X9	Y9	Z9	X10	Y10	Z10	X11	Y11	Z11	X12	Y12	Z12	X13	Y13	Z13	X14	Y14	Z14	X15	Y15	Z15	X16	Y16	Z16	X17	Y17	Z17	X18	Y18	Z18	X19	Y19	Z19	X20	Y20	Z20	X21	Y21	Z21	X22	Y22	Z22	X23	Y23	Z23	X24	Y24	Z24	X25	Y25	Z25	X26	Y26	Z26	X27	Y27	Z27	X28	Y28	Z28	X29	Y29	Z29	X30	Y30	Z30	X31	Y31	Z31	X32	Y32	Z32	X33	Y33	Z33	X34	Y34	Z34	X35	Y35	Z35	X36	Y36	Z36	X37	Y37	Z37	X38	Y38	Z38	X39	Y39	Z39	X40	Y40	Z40	X41	Y41	Z41	X42	Y42	Z42	X43	Y43	Z43	X44	Y44	Z44	X45	Y45	Z45	X46	Y46	Z46	X47	Y47	Z47	X48	Y48	Z48	X49	Y49	Z49	X50	Y50	Z50	X51	Y51	Z51	

97	0.96000000	905.13076	498.06334	-71.13946	912.46422	423.08628	-72.24585	651.50659	219.77228	-127.56119	601.03511	238.08616	-184.03532	690.84112	107.58960	-102.57200	747.75816	101.63985	-143.27878	865.24478	467.44171	-373.99307	895.38824	381.81473	-350.46135	809.94630	88.07948	-364.47571	743.75218	54.32182	-333.56544	915.32803	42.88305	-373.96524	954.35539	57.17201	-309.94921	826.24194	350.23650	-79.46232	862.87084	478.90457	-55.33707	768.71101	410.49051	-68.81097	830.55639	403.31440	-409.60943	815.56926	282.07517	-417.88360	865.11680	740.76450	-54.83887	906.67484	635.08495	-50.98569	855.15689	590.85975	-63.24402	764.95733	699.88297	-86.45944	813.19076	594.05979	-99.42397	897.32407	743.62557	-430.22703	905.32408	607.17111	-399.18268	788.11524	728.42299	-451.91122	789.83918	602.47856	-400.60614	883.49130	930.14780	-142.11110	685.81142	970.26807	-239.61099	912.70552	921.44012	-359.66364	698.90609	967.92813	-320.14556	850.68813	1369.43851	-383.74197	904.90173	1394.27076	-231.29266	893.38625	1269.08844	-491.02058	964.63813	1301.64560	-327.12635	958.95248	1285.92021	-362.93054	893.59495	1308.65237	-130.93450	733.92949	1158.15957	-80.49680	778.14708	1166.33074	-29.79519	817.21636	1082.08073	-6.77809	816.54453	937.58545	21.25320	792.16076	949.19378	48.17682	907.14043	1152.22907	-522.15305	878.73688	941.14172	-444.85228	909.27480	947.73419	-503.49732	993.89604	881.48803	-489.83575	1068.47422	786.11695	-443.79064	1042.62625	762.04533	-465.28911	796.90198	848.12593	-154.59246	822.89611	842.99718	-360.40134	811.29684	864.66403	-182.34828	834.55720	860.50579	-325.40246	
98	0.97000000	920.69650	500.19022	-71.84023	930.20217	425.28638	-73.01734	677.06838	211.65265	-127.48041	625.17143	228.04803	-183.44833	721.67567	101.20334	-103.41610	778.56078	98.33677	-144.49868	867.96859	467.38751	-374.03119	897.72847	381.53391	-350.39909	810.23420	88.30564	-364.36885	743.93812	54.68446	-333.45701	915.49255	42.81054	-373.95120	954.42136	56.78306	-309.88695	846.79687	349.34138	-79.83507	878.41671	479.36259	-55.77419	787.01659	407.45559	-68.75960	832.98389	403.56230	-409.40400	817.13509	282.43398	-417.70611	876.51993	742.64041	-54.07159	919.98789	637.61466	-51.07734	869.28733	592.51503	-62.84011	776.85156	700.34321	-85.12259	826.85194	595.73702	-97.60024	903.19670	743.16838	-430.41181	909.57503	606.56672	-399.39988	793.60530	729.48663	-450.96737	793.82668	603.64273	-399.64492	892.94122	930.79314	-142.49711	694.60356	970.92171	-237.80391	920.96198	921.57739	-360.01528	707.25737	968.65999	-318.41532	859.66532	1369.44686	-384.84946	913.30118	1394.79829	-232.42840	902.60759	1268.84820	-491.77316	973.42678	1301.87965	-327.91034	967.81128	1285.99939	-363.69587	901.90546	1309.62833	-131.69086	742.26199	1159.33564	-80.74796	786.43833	1167.71346	-30.14144	825.60053	1083.76891	-6.49552	825.28379	939.54706	22.67142	800.64124	951.24544	49.24735	916.71820	1151.89252	-522.58380	888.00933	940.97466	-444.72384	919.08422	947.46906	-503.19657	1004.31948	882.11011	-488.22011	1079.39193	787.63935	-441.43802	1054.10883	763.36497	-462.79489	806.41613	848.78638	-153.79732	830.64079	843.39500	-359.82197	820.56626	865.00465	-182.35264	843.02232	860.98841	-325.42493	
99	0.98000000	935.90710	502.10125	-72.75156	947.58727	427.42097	-74.07009	703.18336	203.06280	-127.40202	649.90639	217.44118	-182.75890	753.03726	94.68823	-104.32268	809.72679	94.97479	-145.80998	870.64517	467.38753	-374.05963	900.03774	381.36565	-350.48685	810.44219	88.61197	-364.24892	744.18464	55.04624	-333.32875	915.62872	42.79351	-373.94576	954.38746	56.41370	-309.87813	867.23598	348.28070	-80.42264	893.60248	479.46199	-56.27584	805.23457	403.96684	-68.78023	835.13287	403.88085	-409.19291	818.40162	282.87889	-417.52864	888.06405	744.43635	-53.49768	933.27796	640.00549	-51.41697	883.20200	594.19557	-62.46116	788.72840	700.85160	-83.61148	840.23667	597.36502	-95.79615	909.04864	742.73897	-430.48773	913.89148	606.05371	-399.52308	799.12355	730.55175	-449.94005	797.83648	604.64687	-398.72072	902.31357	931.41063	-142.63982	703.46567	971.59045	-236.17880	929.29089	921.64882	-360.17658	715.76670	969.43052	-316.84186	868.55278	1369.46843	-385.76303	921.68876	1395.25107	-233.38712	911.68550	1268.72739	-492.43304	982.21925	1302.14153	-328.60098	976.59033	1286.11281	-364.36392	910.34506	1310.46340	-132.32470	750.75078	1160.38543	-80.64317	795.00435	1168.90550	-30.25302	834.31102	1085.17538	-6.28260	834.22725	941.18133	23.71933	809.48388	952.93256	50.15498	926.12664	1151.69135	-522.98596	897.23716	940.91122	-444.62793	928.81731	947.34153	-502.95312	1014.55932	882.78360	-486.71355	1089.98167	789.09032	-439.23802	1065.28328	764.69983	-460.43649	815.79062	849.45858	-152.96234	838.53126	843.75330	-359.15087	829.75251	865.25861	-182.23021	851.57391	861.42505	-325.34452	
100	0.99000000	950.73530	503.77159	-73.87541	964.58870	429.44944	-75.39679	729.83339	194.18490	-127.32279	675.27223	206.36610	-182.00474	784.88165	88.27355	-105.17012	841.20777	91.69739	-147.08852	873.28150	467.44732	-374.06749	902.30638	381.31247	-350.68937	810.57314	88.99933	-364.12488	744.48386	55.39428	-333.18606	915.72604	42.82683	-373.94906	954.25713	56.08307	-309.93888	887.56229	347.04191	-81.18415	908.49419	479.16068	-56.85275	823.40228	400.03527	-68.88944	837.04073	404.27893	-408.97842	819.40945	283.41656	-417.35357	899.77011	746.11312	-53.12949	946.52894	642.21875	-52.00207	896.89600	595.82280	-62.12336	800.62075	701.34320	-81.93173	853.31567	598.93975	-94.04709	914.92453	742.33841	-430.43589	918.29898	605.61940	-399.53676	804.72258	731.62031	-448.85853	801.89000	605.49051	-397.84143	911.64425	932.02387	-142.55894	712.40641	972.27640	-234.76418	937.68248	921.65220	-360.15828	724.42490	970.17793	-315.46141	877.36897	1369.50563	-386.47700	930.09714	1395.61767	-234.15656	920.63038	1268.73322	-492.99424	991.01635	1302.41532	-329.18307	985.28256	1286.24332	-364.92282	918.90866	1311.15864	-132.82052	759.41062	1161.25672	-80.29893	803.79809	1169.90461	-30.16911	843.29309	1086.31175	-6.08859	843.35733	942.49411	24.47356	818.63704	954.27079	50.93781	935.35072	1151.62773	-523.34476	906.42870	940.94806	-444.55260	938.46643	947.35551	-502.75863	1024.58093	883.48180	-485.36710	1100.22982	790.45433	-437.20412	1076.10469	766.01615	-458.25776	825.05444	850.16104	-152.08370	846.58409	844.04337	-358.39027	838.86850	865.51495	-181.93390	860.18905	861.79118	-325.10972	
101	1.00000000	965.13923	505.18266	-75.22024	981.17232	431.32920	-76.96581	756.97715	185.18239	-127.22005	701.28162	194.92402	-181.20522	817.17835	82.13999	-105.86766	872.97842	88.63224	-148.24368	875.89670	467.55550	-374.03595	904.52706	381.35041	-350.92975	810.64360	89.45260	-363.99839	744.80925	55.72261	-333.03192	915.77706	42.89711	-373.95819	954.07522	55.81557	-310.05167	907.78623	345.62798	-82.07409	923.13576	478.43367	-57.52755	841.54143	395.68463	-69.10045	838.79752	404.74253	-408.75380	820.26139	284.03037	-417.17320	911.61579	747.62906	-52.95457	959.69892	644.21214	-52.82620	910.34648	597.31433	-61.86560	812.53976	701.75845	-80.10547	866.07340	600.47611	-92.36763	920.87133	741.95547	-430.24235	922.80186	605.23279	-399.42952	810.45175	732.67791	-447.75923	806.02642	606.20341	-397.00717	920.96630	932.63805	-142.28473	721.42074	972.94376	-233.56440	946.12108	921.57321	-359.97537	733.20449	970.83359	-314.28475	886.13312	1369.55072	-386.98601	938.55074	1395.88178	-234.72696	929.45647	1268.85355	-493.44762	999.80380	1302.66986	-329.64075	993.88109	1286.36465	-365.35951	927.59289	1311.70338	-133.16855	768.25081	1161.90198	-79.80973	812.78536	1170.69023	-29.93140	852.49266	1087.17958	-5.87488	852.65922	943.48861	25.01706	828.05742	955.27387	51.63106	944.38889	1151.68583	-523.64775	915.58590	941.06282	-444.48878	948.01288	947.49450	-502.60387	1034.36445	884.17377	-484.21230	1110.14321	791.70877	-435.35728	1086.53855	767.26375	-456.31547	834.24234	850.88514	-151.15785	854.80248	844.22629	-357.54399	847.94354	865.80286	-181.44279	868.85325	862.05787	-324.69251	
